<svg version="1.1" viewBox="0.0 0.0 600.0 371.0" fill="none" stroke="none" stroke-linecap="square" stroke-miterlimit="10" width="600" height="371" xmlns:xlink="http://www.w3.org/1999/xlink" xmlns="http://www.w3.org/2000/svg"><path fill="#ffffff" d="M0 0L600.0 0L600.0 371.0L0 371.0L0 0Z" fill-rule="nonzero"/><path stroke="#333333" stroke-width="1.0" stroke-linecap="butt" d="M84.5 88.5L84.5 300.5" fill-rule="nonzero"/><path stroke="#cccccc" stroke-width="1.0" stroke-linecap="butt" d="M182.5 88.5L182.5 300.5" fill-rule="nonzero"/><path stroke="#cccccc" stroke-width="1.0" stroke-linecap="butt" d="M280.5 88.5L280.5 300.5" fill-rule="nonzero"/><path stroke="#cccccc" stroke-width="1.0" stroke-linecap="butt" d="M378.5 88.5L378.5 300.5" fill-rule="nonzero"/><path stroke="#cccccc" stroke-width="1.0" stroke-linecap="butt" d="M476.5 88.5L476.5 300.5" fill-rule="nonzero"/><path stroke="#cccccc" stroke-width="1.0" stroke-linecap="butt" d="M574.5 88.5L574.5 300.5" fill-rule="nonzero"/><path stroke="#333333" stroke-width="1.0" stroke-linecap="butt" d="M77.5 300.5L581.5 300.5" fill-rule="nonzero"/><path stroke="#cccccc" stroke-width="1.0" stroke-linecap="butt" d="M77.5 247.5L581.5 247.5" fill-rule="nonzero"/><path stroke="#cccccc" stroke-width="1.0" stroke-linecap="butt" d="M77.5 194.5L581.5 194.5" fill-rule="nonzero"/><path stroke="#cccccc" stroke-width="1.0" stroke-linecap="butt" d="M77.5 141.5L581.5 141.5" fill-rule="nonzero"/><path stroke="#cccccc" stroke-width="1.0" stroke-linecap="butt" d="M77.5 88.5L581.5 88.5" fill-rule="nonzero"/><clipPath id="id_0"><path d="M77.55 88.28333L581.45 88.28333L581.45 300.45L77.55 300.45L77.55 88.28333Z" clip-rule="nonzero"/></clipPath><path stroke="#4285f4" stroke-width="2.0" stroke-linecap="butt" stroke-opacity="0.4" clip-path="url(#id_0)" d="M0 368.7819L581.45 117.16099" fill-rule="nonzero"/><path fill="#4285f4" clip-path="url(#id_0)" d="M88.86077 300.45C88.86077 302.93527 86.846054 304.95 84.36077 304.95C81.875496 304.95 79.86077 302.93527 79.86077 300.45C79.86077 297.96472 81.875496 295.95 84.36077 295.95C86.846054 295.95 88.86077 297.96472 88.86077 300.45Z" fill-rule="nonzero"/><path fill="#4285f4" clip-path="url(#id_0)" d="M137.88863 298.32834C137.88863 300.81363 135.8739 302.82834 133.38863 302.82834C130.90334 302.82834 128.88863 300.81363 128.88863 298.32834C128.88863 295.84305 130.90334 293.82834 133.38863 293.82834C135.8739 293.82834 137.88863 295.84305 137.88863 298.32834Z" fill-rule="nonzero"/><path fill="#4285f4" clip-path="url(#id_0)" d="M186.91646 291.96335C186.91646 294.4486 184.90175 296.46335 182.41646 296.46335C179.93118 296.46335 177.91646 294.4486 177.91646 291.96335C177.91646 289.47806 179.93118 287.46335 182.41646 287.46335C184.90175 287.46335 186.91646 289.47806 186.91646 291.96335Z" fill-rule="nonzero"/><path fill="#4285f4" clip-path="url(#id_0)" d="M235.9443 281.355C235.9443 283.84027 233.9296 285.855 231.4443 285.855C228.95903 285.855 226.9443 283.84027 226.9443 281.355C226.9443 278.86972 228.95903 276.855 231.4443 276.855C233.9296 276.855 235.9443 278.86972 235.9443 281.355Z" fill-rule="nonzero"/><path fill="#4285f4" clip-path="url(#id_0)" d="M284.97217 266.50333C284.97217 268.98862 282.95743 271.00333 280.47217 271.00333C277.98688 271.00333 275.97217 268.98862 275.97217 266.50333C275.97217 264.01807 277.98688 262.00333 280.47217 262.00333C282.95743 262.00333 284.97217 264.01807 284.97217 266.50333Z" fill-rule="nonzero"/><path fill="#4285f4" clip-path="url(#id_0)" d="M334.0 247.40834C334.0 249.89362 331.9853 251.90834 329.5 251.90834C327.0147 251.90834 325.0 249.89362 325.0 247.40834C325.0 244.92305 327.0147 242.90834 329.5 242.90834C331.9853 242.90834 334.0 244.92305 334.0 247.40834Z" fill-rule="nonzero"/><path fill="#4285f4" clip-path="url(#id_0)" d="M383.02783 224.07C383.02783 226.55528 381.01312 228.57 378.52783 228.57C376.04257 228.57 374.02783 226.55528 374.02783 224.07C374.02783 221.58472 376.04257 219.57 378.52783 219.57C381.01312 219.57 383.02783 221.58472 383.02783 224.07Z" fill-rule="nonzero"/><path fill="#4285f4" clip-path="url(#id_0)" d="M432.0557 196.48833C432.0557 198.97362 430.041 200.98833 427.5557 200.98833C425.0704 200.98833 423.0557 198.97362 423.0557 196.48833C423.0557 194.00305 425.0704 191.98833 427.5557 191.98833C430.041 191.98833 432.0557 194.00305 432.0557 196.48833Z" fill-rule="nonzero"/><path fill="#4285f4" clip-path="url(#id_0)" d="M481.08353 164.66333C481.08353 167.14862 479.06882 169.16333 476.58353 169.16333C474.09827 169.16333 472.08353 167.14862 472.08353 164.66333C472.08353 162.17805 474.09827 160.16333 476.58353 160.16333C479.06882 160.16333 481.08353 162.17805 481.08353 164.66333Z" fill-rule="nonzero"/><path fill="#4285f4" clip-path="url(#id_0)" d="M530.1114 128.595C530.1114 131.08028 528.0967 133.095 525.6114 133.095C523.1261 133.095 521.1114 131.08028 521.1114 128.595C521.1114 126.10972 523.1261 124.095 525.6114 124.095C528.0967 124.095 530.1114 126.10972 530.1114 128.595Z" fill-rule="nonzero"/><path fill="#4285f4" clip-path="url(#id_0)" d="M579.1392 88.28333C579.1392 90.768616 577.1245 92.78333 574.6392 92.78333C572.15393 92.78333 570.1392 90.768616 570.1392 88.28333C570.1392 85.79805 572.15393 83.78333 574.6392 83.78333C577.1245 83.78333 579.1392 85.79805 579.1392 88.28333Z" fill-rule="nonzero"/><path fill="#000000" d="M326.59375 349.45L328.85938 346.21564L326.76562 343.23126L328.07812 343.23126L329.03125 344.6844Q329.29688 345.10626 329.46875 345.3875Q329.71875 344.9969 329.9375 344.7L330.98438 343.23126L332.25 343.23126L330.09375 346.15314L332.40625 349.45L331.125 349.45L329.84375 347.5125L329.5 346.9969L327.85938 349.45L326.59375 349.45Z" fill-rule="nonzero"/><path fill="#000000" d="M31.940638 203.11667L30.956263 203.24167Q31.050013 202.89792 31.050013 202.6323Q31.050013 202.28854 30.925013 202.08542Q30.815638 201.86667 30.612513 201.72604Q30.440638 201.6323 29.815638 201.39792Q29.737513 201.3823 29.565638 201.30417L23.331263 203.67917L23.331263 202.53854L26.925013 201.24167Q27.612513 200.99167 28.378138 200.78854Q27.643763 200.60104 26.956263 200.35104L23.331263 199.02292L23.331263 197.97604L29.659388 200.33542Q30.675013 200.72604 31.065638 200.92917Q31.596888 201.21042 31.831263 201.58542Q32.08126 201.9448 32.08126 202.4448Q32.08126 202.74167 31.940638 203.11667Z" fill-rule="nonzero"/><path fill="#000000" d="M65.05 300.21564Q65.05 298.6844 65.3625 297.7625Q65.675 296.825 66.28438 296.325Q66.90938 295.825 67.84688 295.825Q68.53438 295.825 69.05 296.10626Q69.58125 296.3875 69.925 296.91876Q70.26875 297.4344 70.45625 298.1844Q70.64375 298.9344 70.64375 300.21564Q70.64375 301.73126 70.33125 302.65314Q70.03438 303.575 69.40938 304.09064Q68.8 304.59064 67.84688 304.59064Q66.6125 304.59064 65.89375 303.7Q65.05 302.6375 65.05 300.21564ZM66.12813 300.21564Q66.12813 302.325 66.62813 303.02814Q67.12813 303.73126 67.84688 303.73126Q68.58125 303.73126 69.06563 303.02814Q69.56563 302.325 69.56563 300.21564Q69.56563 298.09064 69.06563 297.40314Q68.58125 296.7 67.83125 296.7Q67.1125 296.7 66.675 297.3094Q66.12813 298.09064 66.12813 300.21564Z" fill-rule="nonzero"/><path fill="#000000" d="M63.596874 250.39272L63.596874 251.40834L57.909374 251.40834Q57.909374 251.03334 58.034374 250.67397Q58.253124 250.09584 58.721874 249.53334Q59.20625 248.97084 60.1125 248.23647Q61.51875 247.08022 62.003124 246.40834Q62.503124 245.73647 62.503124 245.14272Q62.503124 244.51772 62.05 244.09584Q61.596874 243.65834 60.878124 243.65834Q60.1125 243.65834 59.659374 244.11147Q59.20625 244.56459 59.190624 245.37709L58.1125 245.26772Q58.221874 244.04897 58.940624 243.42397Q59.675 242.78334 60.909374 242.78334Q62.14375 242.78334 62.8625 243.47084Q63.58125 244.15834 63.58125 245.17397Q63.58125 245.68959 63.3625 246.18959Q63.159374 246.67397 62.659374 247.23647Q62.175 247.78334 61.05 248.73647Q60.096874 249.53334 59.815624 249.83022Q59.55 250.11147 59.378124 250.39272L63.596874 250.39272ZM65.05 249.15834L66.15938 249.06459Q66.28438 249.87709 66.72188 250.28334Q67.175 250.68959 67.81563 250.68959Q68.56563 250.68959 69.09688 250.11147Q69.62813 249.53334 69.62813 248.59584Q69.62813 247.68959 69.1125 247.17397Q68.6125 246.64272 67.78438 246.64272Q67.28438 246.64272 66.8625 246.87709Q66.45625 247.11147 66.22188 247.47084L65.2375 247.34584L66.06563 242.93959L70.34688 242.93959L70.34688 243.93959L66.90938 243.93959L66.45625 246.25209Q67.22188 245.70522 68.06563 245.70522Q69.19063 245.70522 69.95625 246.48647Q70.7375 247.26772 70.7375 248.50209Q70.7375 249.65834 70.06563 250.51772Q69.2375 251.54897 67.81563 251.54897Q66.64375 251.54897 65.89375 250.89272Q65.15938 250.23647 65.05 249.15834Z" fill-rule="nonzero"/><path fill="#000000" d="M58.05 196.11667L59.159374 196.02292Q59.284374 196.83542 59.721874 197.24167Q60.175 197.64792 60.815624 197.64792Q61.565624 197.64792 62.096874 197.0698Q62.628124 196.49167 62.628124 195.55417Q62.628124 194.64792 62.1125 194.1323Q61.6125 193.60104 60.784374 193.60104Q60.284374 193.60104 59.8625 193.83542Q59.45625 194.0698 59.221874 194.42917L58.2375 194.30417L59.065624 189.89792L63.346874 189.89792L63.346874 190.89792L59.909374 190.89792L59.45625 193.21042Q60.221874 192.66354 61.065624 192.66354Q62.190624 192.66354 62.95625 193.4448Q63.7375 194.22604 63.7375 195.46042Q63.7375 196.61667 63.065624 197.47604Q62.2375 198.5073 60.815624 198.5073Q59.64375 198.5073 58.89375 197.85104Q58.159374 197.1948 58.05 196.11667ZM65.05 194.1323Q65.05 192.60104 65.3625 191.67917Q65.675 190.74167 66.28438 190.24167Q66.90938 189.74167 67.84688 189.74167Q68.53438 189.74167 69.05 190.02292Q69.58125 190.30417 69.925 190.83542Q70.26875 191.35104 70.45625 192.10104Q70.64375 192.85104 70.64375 194.1323Q70.64375 195.64792 70.33125 196.5698Q70.03438 197.49167 69.40938 198.0073Q68.8 198.5073 67.84688 198.5073Q66.6125 198.5073 65.89375 197.61667Q65.05 196.55417 65.05 194.1323ZM66.12813 194.1323Q66.12813 196.24167 66.62813 196.9448Q67.12813 197.64792 67.84688 197.64792Q68.58125 197.64792 69.06563 196.9448Q69.56563 196.24167 69.56563 194.1323Q69.56563 192.0073 69.06563 191.3198Q68.58125 190.61667 67.83125 190.61667Q67.1125 190.61667 66.675 191.22604Q66.12813 192.0073 66.12813 194.1323Z" fill-rule="nonzero"/><path fill="#000000" d="M58.1125 137.85625L58.1125 136.84062L63.675 136.84062L63.675 137.66875Q62.8625 138.54375 62.05 139.99687Q61.253124 141.43437 60.815624 142.96562Q60.4875 144.04375 60.409374 145.325L59.315624 145.325Q59.33125 144.30937 59.70625 142.87187Q60.096874 141.43437 60.8 140.10625Q61.51875 138.77812 62.33125 137.85625L58.1125 137.85625ZM65.05 143.075L66.15938 142.98125Q66.28438 143.79375 66.72188 144.2Q67.175 144.60625 67.81563 144.60625Q68.56563 144.60625 69.09688 144.02812Q69.62813 143.45 69.62813 142.5125Q69.62813 141.60625 69.1125 141.09062Q68.6125 140.55937 67.78438 140.55937Q67.28438 140.55937 66.8625 140.79375Q66.45625 141.02812 66.22188 141.3875L65.2375 141.2625L66.06563 136.85625L70.34688 136.85625L70.34688 137.85625L66.90938 137.85625L66.45625 140.16875Q67.22188 139.62187 68.06563 139.62187Q69.19063 139.62187 69.95625 140.40312Q70.7375 141.18437 70.7375 142.41875Q70.7375 143.575 70.06563 144.43437Q69.2375 145.46562 67.81563 145.46562Q66.64375 145.46562 65.89375 144.80937Q65.15938 144.15312 65.05 143.075Z" fill-rule="nonzero"/><path fill="#000000" d="M55.01875 92.28333L53.971874 92.28333L53.971874 85.56458Q53.58125 85.92396 52.95625 86.29896Q52.346874 86.65833 51.8625 86.83021L51.8625 85.81458Q52.7375 85.39271 53.39375 84.81458Q54.065624 84.22083 54.346874 83.65833L55.01875 83.65833L55.01875 92.28333ZM58.05 88.04896Q58.05 86.51771 58.3625 85.59583Q58.675 84.65833 59.284374 84.15833Q59.909374 83.65833 60.846874 83.65833Q61.534374 83.65833 62.05 83.93958Q62.58125 84.22083 62.925 84.75208Q63.26875 85.26771 63.45625 86.01771Q63.64375 86.76771 63.64375 88.04896Q63.64375 89.56458 63.33125 90.48646Q63.034374 91.40833 62.409374 91.92396Q61.8 92.42396 60.846874 92.42396Q59.6125 92.42396 58.89375 91.53333Q58.05 90.47083 58.05 88.04896ZM59.128124 88.04896Q59.128124 90.15833 59.628124 90.86146Q60.128124 91.56458 60.846874 91.56458Q61.58125 91.56458 62.065624 90.86146Q62.565624 90.15833 62.565624 88.04896Q62.565624 85.92396 62.065624 85.23646Q61.58125 84.53333 60.83125 84.53333Q60.1125 84.53333 59.675 85.14271Q59.128124 85.92396 59.128124 88.04896ZM65.05 88.04896Q65.05 86.51771 65.3625 85.59583Q65.675 84.65833 66.28438 84.15833Q66.90938 83.65833 67.84688 83.65833Q68.53438 83.65833 69.05 83.93958Q69.58125 84.22083 69.925 84.75208Q70.26875 85.26771 70.45625 86.01771Q70.64375 86.76771 70.64375 88.04896Q70.64375 89.56458 70.33125 90.48646Q70.03438 91.40833 69.40938 91.92396Q68.8 92.42396 67.84688 92.42396Q66.6125 92.42396 65.89375 91.53333Q65.05 90.47083 65.05 88.04896ZM66.12813 88.04896Q66.12813 90.15833 66.62813 90.86146Q67.12813 91.56458 67.84688 91.56458Q68.58125 91.56458 69.06563 90.86146Q69.56563 90.15833 69.56563 88.04896Q69.56563 85.92396 69.06563 85.23646Q68.58125 84.53333 67.83125 84.53333Q67.1125 84.53333 66.675 85.14271Q66.12813 85.92396 66.12813 88.04896Z" fill-rule="nonzero"/><path fill="#000000" d="M81.36077 313.21564Q81.36077 311.6844 81.67327 310.7625Q81.98577 309.825 82.595146 309.325Q83.220146 308.825 84.157646 308.825Q84.845146 308.825 85.36077 309.10626Q85.89202 309.3875 86.23577 309.91876Q86.57952 310.4344 86.76702 311.1844Q86.95452 311.9344 86.95452 313.21564Q86.95452 314.73126 86.64202 315.65314Q86.345146 316.575 85.720146 317.09064Q85.11077 317.59064 84.157646 317.59064Q82.92327 317.59064 82.20452 316.7Q81.36077 315.6375 81.36077 313.21564ZM82.438896 313.21564Q82.438896 315.325 82.938896 316.02814Q83.438896 316.73126 84.157646 316.73126Q84.89202 316.73126 85.376396 316.02814Q85.876396 315.325 85.876396 313.21564Q85.876396 311.09064 85.376396 310.40314Q84.89202 309.7 84.14202 309.7Q83.42327 309.7 82.98577 310.3094Q82.438896 311.09064 82.438896 313.21564Z" fill-rule="nonzero"/><path fill="#000000" d="M184.96333 316.4344L184.96333 317.45L179.27583 317.45Q179.27583 317.075 179.40083 316.71564Q179.61958 316.1375 180.08833 315.575Q180.57271 315.0125 181.47896 314.27814Q182.88521 313.1219 183.36958 312.45Q183.86958 311.77814 183.86958 311.1844Q183.86958 310.5594 183.41646 310.1375Q182.96333 309.7 182.24458 309.7Q181.47896 309.7 181.02583 310.15314Q180.57271 310.60626 180.55708 311.41876L179.47896 311.3094Q179.58833 310.09064 180.30708 309.46564Q181.04146 308.825 182.27583 308.825Q183.51021 308.825 184.22896 309.5125Q184.94771 310.2 184.94771 311.21564Q184.94771 311.73126 184.72896 312.23126Q184.52583 312.71564 184.02583 313.27814Q183.54146 313.825 182.41646 314.77814Q181.46333 315.575 181.18208 315.8719Q180.91646 316.15314 180.74458 316.4344L184.96333 316.4344Z" fill-rule="nonzero"/><path fill="#000000" d="M280.84717 317.45L280.84717 315.3875L277.12842 315.3875L277.12842 314.41876L281.0503 308.85626L281.90967 308.85626L281.90967 314.41876L283.06592 314.41876L283.06592 315.3875L281.90967 315.3875L281.90967 317.45L280.84717 317.45ZM280.84717 314.41876L280.84717 310.5594L278.15967 314.41876L280.84717 314.41876Z" fill-rule="nonzero"/><path fill="#000000" d="M380.99658 310.96564L379.9497 311.04376Q379.80908 310.41876 379.55908 310.1375Q379.12158 309.6844 378.49658 309.6844Q377.99658 309.6844 377.60596 309.96564Q377.12158 310.34064 376.8247 311.04376Q376.54346 311.73126 376.52783 313.0125Q376.90283 312.4344 377.4497 312.15314Q378.0122 311.8719 378.62158 311.8719Q379.66846 311.8719 380.40283 312.65314Q381.15283 313.4344 381.15283 314.65314Q381.15283 315.46564 380.79346 316.16876Q380.4497 316.85626 379.84033 317.23126Q379.23096 317.59064 378.46533 317.59064Q377.1372 317.59064 376.30908 316.6219Q375.48096 315.65314 375.48096 313.4344Q375.48096 310.9344 376.40283 309.8094Q377.1997 308.825 378.55908 308.825Q379.5747 308.825 380.21533 309.40314Q380.87158 309.96564 380.99658 310.96564ZM376.6997 314.66876Q376.6997 315.21564 376.91846 315.71564Q377.15283 316.2 377.55908 316.46564Q377.98096 316.73126 378.4497 316.73126Q379.10596 316.73126 379.59033 316.2Q380.0747 315.65314 380.0747 314.73126Q380.0747 313.84064 379.59033 313.325Q379.12158 312.8094 378.40283 312.8094Q377.68408 312.8094 377.18408 313.325Q376.6997 313.84064 376.6997 314.66876Z" fill-rule="nonzero"/><path fill="#000000" d="M475.20853 312.79376Q474.55228 312.54376 474.22415 312.10626Q473.91165 311.65314 473.91165 311.04376Q473.91165 310.10626 474.58353 309.46564Q475.27103 308.825 476.3804 308.825Q477.5054 308.825 478.1929 309.48126Q478.8804 310.1375 478.8804 311.075Q478.8804 311.66876 478.5679 312.10626Q478.2554 312.54376 477.61478 312.79376Q478.41165 313.04376 478.8179 313.6219Q479.22415 314.2 479.22415 314.9969Q479.22415 316.09064 478.4429 316.84064Q477.67728 317.59064 476.39603 317.59064Q475.1304 317.59064 474.34915 316.84064Q473.5679 316.09064 473.5679 314.96564Q473.5679 314.1219 473.98978 313.5594Q474.42728 312.9969 475.20853 312.79376ZM474.98978 310.9969Q474.98978 311.60626 475.3804 311.9969Q475.78665 312.3875 476.41165 312.3875Q477.02103 312.3875 477.41165 312.0125Q477.80228 311.6219 477.80228 311.0594Q477.80228 310.48126 477.39603 310.09064Q476.98978 309.6844 476.39603 309.6844Q475.78665 309.6844 475.3804 310.075Q474.98978 310.46564 474.98978 310.9969ZM474.66165 314.96564Q474.66165 315.41876 474.86478 315.84064Q475.08353 316.2625 475.5054 316.4969Q475.92728 316.73126 476.41165 316.73126Q477.16165 316.73126 477.64603 316.2469Q478.14603 315.7625 478.14603 315.0125Q478.14603 314.2469 477.64603 313.7469Q477.14603 313.2469 476.3804 313.2469Q475.6304 313.2469 475.14603 313.7469Q474.66165 314.23126 474.66165 314.96564Z" fill-rule="nonzero"/><path fill="#000000" d="M572.108 317.45L571.0611 317.45L571.0611 310.73126Q570.6705 311.09064 570.0455 311.46564Q569.4361 311.825 568.9517 311.9969L568.9517 310.98126Q569.8267 310.5594 570.483 309.98126Q571.15485 309.3875 571.4361 308.825L572.108 308.825L572.108 317.45ZM575.1392 313.21564Q575.1392 311.6844 575.4517 310.7625Q575.7642 309.825 576.3736 309.325Q576.9986 308.825 577.9361 308.825Q578.6236 308.825 579.1392 309.10626Q579.6705 309.3875 580.0142 309.91876Q580.358 310.4344 580.5455 311.1844Q580.733 311.9344 580.733 313.21564Q580.733 314.73126 580.4205 315.65314Q580.1236 316.575 579.4986 317.09064Q578.8892 317.59064 577.9361 317.59064Q576.7017 317.59064 575.983 316.7Q575.1392 315.6375 575.1392 313.21564ZM576.21735 313.21564Q576.21735 315.325 576.71735 316.02814Q577.21735 316.73126 577.9361 316.73126Q578.6705 316.73126 579.15485 316.02814Q579.65485 315.325 579.65485 313.21564Q579.65485 311.09064 579.15485 310.40314Q578.6705 309.7 577.9205 309.7Q577.2017 309.7 576.7642 310.3094Q576.21735 311.09064 576.21735 313.21564Z" fill-rule="nonzero"/><path fill="#4285f4" d="M212.0 61.916668C212.0 65.23038 209.3137 67.916664 206.0 67.916664C202.6863 67.916664 200.0 65.23038 200.0 61.916668C200.0 58.60296 202.6863 55.916668 206.0 55.916668C209.3137 55.916668 212.0 58.60296 212.0 61.916668Z" fill-rule="nonzero"/><path fill="#1a1a1a" d="M220.75 68.30729L220.625 67.322914Q220.96875 67.416664 221.23438 67.416664Q221.57812 67.416664 221.78125 67.291664Q222.0 67.18229 222.14062 66.979164Q222.23438 66.80729 222.46875 66.18229Q222.48438 66.104164 222.5625 65.93229L220.1875 59.697914L221.32812 59.697914L222.625 63.291664Q222.875 63.979164 223.07812 64.74479Q223.26562 64.010414 223.51562 63.322914L224.84375 59.697914L225.89062 59.697914L223.53125 66.02604Q223.14062 67.041664 222.9375 67.43229Q222.65625 67.96354 222.28125 68.197914Q221.92188 68.447914 221.42188 68.447914Q221.125 68.447914 220.75 68.30729Z" fill-rule="nonzero"/><path stroke="#4285f4" stroke-width="4.0" stroke-linecap="butt" stroke-opacity="0.4" d="M242.0 61.916668L254.0 61.916668" fill-rule="nonzero"/><path fill="#1a1a1a" d="M265.10938 65.916664L265.10938 58.33854L262.28125 58.33854L262.28125 57.322914L269.09375 57.322914L269.09375 58.33854L266.25 58.33854L266.25 65.916664L265.10938 65.916664ZM269.78125 65.916664L269.78125 59.697914L270.73438 59.697914L270.73438 60.635414Q271.09375 59.979164 271.39062 59.77604Q271.70312 59.55729 272.07812 59.55729Q272.60938 59.55729 273.15625 59.885414L272.79688 60.86979Q272.40625 60.635414 272.03125 60.635414Q271.67188 60.635414 271.39062 60.854164Q271.125 61.05729 271.01562 61.43229Q270.82812 61.99479 270.82812 62.65104L270.82812 65.916664L269.78125 65.916664ZM278.04688 63.916664L279.14062 64.041664Q278.89062 64.99479 278.1875 65.52604Q277.48438 66.05729 276.40625 66.05729Q275.04688 66.05729 274.23438 65.21354Q273.4375 64.36979 273.4375 62.854164Q273.4375 61.291664 274.25 60.43229Q275.0625 59.55729 276.34375 59.55729Q277.59375 59.55729 278.375 60.40104Q279.17188 61.24479 279.17188 62.791664Q279.17188 62.885414 279.17188 63.072914L274.53125 63.072914Q274.59375 64.104164 275.10938 64.65104Q275.625 65.18229 276.40625 65.18229Q276.98438 65.18229 277.39062 64.885414Q277.8125 64.572914 278.04688 63.916664ZM274.59375 62.21354L278.0625 62.21354Q278.0 61.416664 277.67188 61.02604Q277.15625 60.416664 276.35938 60.416664Q275.625 60.416664 275.125 60.90104Q274.64062 61.385414 274.59375 62.21354ZM280.79688 65.916664L280.79688 59.697914L281.73438 59.697914L281.73438 60.572914Q282.42188 59.55729 283.71875 59.55729Q284.28125 59.55729 284.75 59.760414Q285.23438 59.96354 285.46875 60.291664Q285.70312 60.61979 285.79688 61.05729Q285.84375 61.354164 285.84375 62.08854L285.84375 65.916664L284.79688 65.916664L284.79688 62.135414Q284.79688 61.479164 284.67188 61.166664Q284.54688 60.854164 284.23438 60.666664Q283.92188 60.46354 283.5 60.46354Q282.82812 60.46354 282.32812 60.90104Q281.84375 61.322914 281.84375 62.510414L281.84375 65.916664L280.79688 65.916664ZM291.82812 65.916664L291.82812 65.135414Q291.23438 66.05729 290.09375 66.05729Q289.34375 66.05729 288.71875 65.65104Q288.09375 65.229164 287.75 64.49479Q287.40625 63.760414 287.40625 62.80729Q287.40625 61.885414 287.71875 61.11979Q288.03125 60.354164 288.65625 59.96354Q289.28125 59.55729 290.04688 59.55729Q290.60938 59.55729 291.04688 59.791664Q291.48438 60.02604 291.76562 60.40104L291.76562 57.322914L292.8125 57.322914L292.8125 65.916664L291.82812 65.916664ZM288.5 62.80729Q288.5 64.010414 289.0 64.604164Q289.5 65.18229 290.1875 65.18229Q290.875 65.18229 291.35938 64.61979Q291.84375 64.05729 291.84375 62.90104Q291.84375 61.61979 291.34375 61.02604Q290.85938 60.43229 290.14062 60.43229Q289.4375 60.43229 288.96875 61.010414Q288.5 61.572914 288.5 62.80729ZM294.76562 65.916664L294.76562 57.322914L295.82812 57.322914L295.82812 65.916664L294.76562 65.916664ZM297.79688 58.541664L297.79688 57.322914L298.85938 57.322914L298.85938 58.541664L297.79688 58.541664ZM297.79688 65.916664L297.79688 59.697914L298.85938 59.697914L298.85938 65.916664L297.79688 65.916664ZM300.79688 65.916664L300.79688 59.697914L301.73438 59.697914L301.73438 60.572914Q302.42188 59.55729 303.71875 59.55729Q304.28125 59.55729 304.75 59.760414Q305.23438 59.96354 305.46875 60.291664Q305.70312 60.61979 305.79688 61.05729Q305.84375 61.354164 305.84375 62.08854L305.84375 65.916664L304.79688 65.916664L304.79688 62.135414Q304.79688 61.479164 304.67188 61.166664Q304.54688 60.854164 304.23438 60.666664Q303.92188 60.46354 303.5 60.46354Q302.82812 60.46354 302.32812 60.90104Q301.84375 61.322914 301.84375 62.510414L301.84375 65.916664L300.79688 65.916664ZM312.04688 63.916664L313.14062 64.041664Q312.89062 64.99479 312.1875 65.52604Q311.48438 66.05729 310.40625 66.05729Q309.04688 66.05729 308.23438 65.21354Q307.4375 64.36979 307.4375 62.854164Q307.4375 61.291664 308.25 60.43229Q309.0625 59.55729 310.34375 59.55729Q311.59375 59.55729 312.375 60.40104Q313.17188 61.24479 313.17188 62.791664Q313.17188 62.885414 313.17188 63.072914L308.53125 63.072914Q308.59375 64.104164 309.10938 64.65104Q309.625 65.18229 310.40625 65.18229Q310.98438 65.18229 311.39062 64.885414Q311.8125 64.572914 312.04688 63.916664ZM308.59375 62.21354L312.0625 62.21354Q312.0 61.416664 311.67188 61.02604Q311.15625 60.416664 310.35938 60.416664Q309.625 60.416664 309.125 60.90104Q308.64062 61.385414 308.59375 62.21354ZM318.04688 65.916664L318.04688 60.510414L317.10938 60.510414L317.10938 59.697914L318.04688 59.697914L318.04688 59.02604Q318.04688 58.40104 318.15625 58.104164Q318.3125 57.68229 318.6875 57.43229Q319.07812 57.18229 319.76562 57.18229Q320.21875 57.18229 320.75 57.291664L320.59375 58.197914Q320.26562 58.15104 319.96875 58.15104Q319.48438 58.15104 319.28125 58.354164Q319.09375 58.55729 319.09375 59.11979L319.09375 59.697914L320.3125 59.697914L320.3125 60.510414L319.09375 60.510414L319.09375 65.916664L318.04688 65.916664ZM320.40625 62.80729Q320.40625 61.072914 321.35938 60.24479Q322.15625 59.55729 323.3125 59.55729Q324.59375 59.55729 325.40625 60.40104Q326.23438 61.229164 326.23438 62.71354Q326.23438 63.916664 325.875 64.604164Q325.51562 65.291664 324.8125 65.68229Q324.125 66.05729 323.3125 66.05729Q322.01562 66.05729 321.20312 65.229164Q320.40625 64.385414 320.40625 62.80729ZM321.48438 62.80729Q321.48438 63.99479 322.0 64.58854Q322.53125 65.18229 323.3125 65.18229Q324.10938 65.18229 324.625 64.58854Q325.14062 63.99479 325.14062 62.77604Q325.14062 61.61979 324.60938 61.02604Q324.09375 60.43229 323.3125 60.43229Q322.53125 60.43229 322.0 61.02604Q321.48438 61.604164 321.48438 62.80729ZM327.78125 65.916664L327.78125 59.697914L328.73438 59.697914L328.73438 60.635414Q329.09375 59.979164 329.39062 59.77604Q329.70312 59.55729 330.07812 59.55729Q330.60938 59.55729 331.15625 59.885414L330.79688 60.86979Q330.40625 60.635414 330.03125 60.635414Q329.67188 60.635414 329.39062 60.854164Q329.125 61.05729 329.01562 61.43229Q328.82812 61.99479 328.82812 62.65104L328.82812 65.916664L327.78125 65.916664ZM334.75 68.30729L334.625 67.322914Q334.96875 67.416664 335.23438 67.416664Q335.57812 67.416664 335.78125 67.291664Q336.0 67.18229 336.14062 66.979164Q336.23438 66.80729 336.46875 66.18229Q336.48438 66.104164 336.5625 65.93229L334.1875 59.697914L335.32812 59.697914L336.625 63.291664Q336.875 63.979164 337.07812 64.74479Q337.26562 64.010414 337.51562 63.322914L338.84375 59.697914L339.89062 59.697914L337.53125 66.02604Q337.14062 67.041664 336.9375 67.43229Q336.65625 67.96354 336.28125 68.197914Q335.92188 68.447914 335.42188 68.447914Q335.125 68.447914 334.75 68.30729ZM343.9375 65.916664L343.9375 57.322914L347.75 57.322914Q348.90625 57.322914 349.5 57.55729Q350.09375 57.791664 350.45312 58.385414Q350.8125 58.96354 350.8125 59.666664Q350.8125 60.58854 350.21875 61.21354Q349.625 61.83854 348.39062 62.010414Q348.84375 62.229164 349.07812 62.43229Q349.57812 62.885414 350.01562 63.572914L351.51562 65.916664L350.07812 65.916664L348.95312 64.135414Q348.45312 63.354164 348.125 62.947914Q347.8125 62.541664 347.54688 62.385414Q347.29688 62.21354 347.03125 62.135414Q346.84375 62.104164 346.40625 62.104164L345.07812 62.104164L345.07812 65.916664L343.9375 65.916664ZM345.07812 61.11979L347.53125 61.11979Q348.29688 61.11979 348.73438 60.96354Q349.1875 60.791664 349.40625 60.447914Q349.64062 60.08854 349.64062 59.666664Q349.64062 59.05729 349.1875 58.666664Q348.75 58.27604 347.79688 58.27604L345.07812 58.27604L345.07812 61.11979ZM352.14062 61.61979Q352.1875 61.291664 352.42188 60.947914Q352.79688 60.447914 353.64062 59.83854Q354.48438 59.229164 354.64062 59.041664Q354.85938 58.80729 354.85938 58.55729Q354.85938 58.27604 354.64062 58.104164Q354.4375 57.916664 354.04688 57.916664Q353.65625 57.916664 353.46875 58.05729Q353.28125 58.18229 353.15625 58.572914L352.26562 58.479164Q352.4375 57.83854 352.85938 57.52604Q353.28125 57.21354 354.0625 57.21354Q354.95312 57.21354 355.35938 57.572914Q355.78125 57.916664 355.78125 58.416664Q355.78125 58.90104 355.42188 59.33854Q355.17188 59.666664 354.23438 60.33854Q353.73438 60.697914 353.53125 60.916664L355.79688 60.916664L355.79688 61.61979L352.14062 61.61979ZM365.34375 60.86979L359.67188 60.86979L359.67188 59.885414L365.34375 59.885414L365.34375 60.86979ZM365.34375 63.479164L359.67188 63.479164L359.67188 62.49479L365.34375 62.49479L365.34375 63.479164ZM369.5 61.68229Q369.5 60.15104 369.8125 59.229164Q370.125 58.291664 370.73438 57.791664Q371.35938 57.291664 372.29688 57.291664Q372.98438 57.291664 373.5 57.572914Q374.03125 57.854164 374.375 58.385414Q374.71875 58.90104 374.90625 59.65104Q375.09375 60.40104 375.09375 61.68229Q375.09375 63.197914 374.78125 64.11979Q374.48438 65.041664 373.85938 65.55729Q373.25 66.05729 372.29688 66.05729Q371.0625 66.05729 370.34375 65.166664Q369.5 64.104164 369.5 61.68229ZM370.57812 61.68229Q370.57812 63.791664 371.07812 64.49479Q371.57812 65.197914 372.29688 65.197914Q373.03125 65.197914 373.51562 64.49479Q374.01562 63.791664 374.01562 61.68229Q374.01562 59.55729 373.51562 58.86979Q373.03125 58.166664 372.28125 58.166664Q371.5625 58.166664 371.125 58.77604Q370.57812 59.55729 370.57812 61.68229ZM377.09375 65.916664L377.09375 64.71354L378.29688 64.71354L378.29688 65.916664L377.09375 65.916664ZM379.65625 63.93229L380.67188 63.83854Q380.79688 64.55729 381.15625 64.885414Q381.53125 65.197914 382.09375 65.197914Q382.57812 65.197914 382.9375 64.979164Q383.3125 64.74479 383.54688 64.385414Q383.78125 64.010414 383.9375 63.385414Q384.09375 62.74479 384.09375 62.08854Q384.09375 62.010414 384.09375 61.86979Q383.78125 62.36979 383.23438 62.697914Q382.6875 63.010414 382.04688 63.010414Q380.96875 63.010414 380.23438 62.24479Q379.5 61.46354 379.5 60.197914Q379.5 58.885414 380.26562 58.08854Q381.04688 57.291664 382.20312 57.291664Q383.03125 57.291664 383.71875 57.74479Q384.42188 58.197914 384.78125 59.041664Q385.14062 59.86979 385.14062 61.447914Q385.14062 63.08854 384.78125 64.072914Q384.4375 65.041664 383.71875 65.55729Q383.01562 66.05729 382.07812 66.05729Q381.0625 66.05729 380.42188 65.510414Q379.78125 64.947914 379.65625 63.93229ZM383.96875 60.135414Q383.96875 59.229164 383.48438 58.697914Q383.01562 58.166664 382.32812 58.166664Q381.625 58.166664 381.09375 58.74479Q380.57812 59.30729 380.57812 60.229164Q380.57812 61.041664 381.07812 61.55729Q381.57812 62.072914 382.29688 62.072914Q383.03125 62.072914 383.5 61.55729Q383.96875 61.041664 383.96875 60.135414ZM392.04688 64.90104L392.04688 65.916664L386.35938 65.916664Q386.35938 65.541664 386.48438 65.18229Q386.70312 64.604164 387.17188 64.041664Q387.65625 63.479164 388.5625 62.74479Q389.96875 61.58854 390.45312 60.916664Q390.95312 60.24479 390.95312 59.65104Q390.95312 59.02604 390.5 58.604164Q390.04688 58.166664 389.32812 58.166664Q388.5625 58.166664 388.10938 58.61979Q387.65625 59.072914 387.64062 59.885414L386.5625 59.77604Q386.67188 58.55729 387.39062 57.93229Q388.125 57.291664 389.35938 57.291664Q390.59375 57.291664 391.3125 57.979164Q392.03125 58.666664 392.03125 59.68229Q392.03125 60.197914 391.8125 60.697914Q391.60938 61.18229 391.10938 61.74479Q390.625 62.291664 389.5 63.24479Q388.54688 64.041664 388.26562 64.33854Q388.0 64.61979 387.82812 64.90104L392.04688 64.90104ZM395.125 61.260414Q394.46875 61.010414 394.14062 60.572914Q393.82812 60.11979 393.82812 59.510414Q393.82812 58.572914 394.5 57.93229Q395.1875 57.291664 396.29688 57.291664Q397.42188 57.291664 398.10938 57.947914Q398.79688 58.604164 398.79688 59.541664Q398.79688 60.135414 398.48438 60.572914Q398.17188 61.010414 397.53125 61.260414Q398.32812 61.510414 398.73438 62.08854Q399.14062 62.666664 399.14062 63.46354Q399.14062 64.55729 398.35938 65.30729Q397.59375 66.05729 396.3125 66.05729Q395.04688 66.05729 394.26562 65.30729Q393.48438 64.55729 393.48438 63.43229Q393.48438 62.58854 393.90625 62.02604Q394.34375 61.46354 395.125 61.260414ZM394.90625 59.46354Q394.90625 60.072914 395.29688 60.46354Q395.70312 60.854164 396.32812 60.854164Q396.9375 60.854164 397.32812 60.479164Q397.71875 60.08854 397.71875 59.52604Q397.71875 58.947914 397.3125 58.55729Q396.90625 58.15104 396.3125 58.15104Q395.70312 58.15104 395.29688 58.541664Q394.90625 58.93229 394.90625 59.46354ZM394.57812 63.43229Q394.57812 63.885414 394.78125 64.30729Q395.0 64.729164 395.42188 64.96354Q395.84375 65.197914 396.32812 65.197914Q397.07812 65.197914 397.5625 64.71354Q398.0625 64.229164 398.0625 63.479164Q398.0625 62.71354 397.5625 62.21354Q397.0625 61.71354 396.29688 61.71354Q395.54688 61.71354 395.0625 62.21354Q394.57812 62.697914 394.57812 63.43229Z" fill-rule="nonzero"/><path fill="#757575" d="M19.784374 41.55L19.596874 39.89375Q20.175 40.05 20.596874 40.05Q21.190624 40.05 21.534374 39.846874Q21.89375 39.659374 22.1125 39.315624Q22.284374 39.05 22.659374 38.003124Q22.70625 37.846874 22.815624 37.565624L18.878124 27.175L20.76875 27.175L22.925 33.190624Q23.346874 34.33125 23.675 35.58125Q23.9875 34.378124 24.39375 33.221874L26.6125 27.175L28.378124 27.175L24.425 37.721874Q23.8 39.440624 23.440624 40.08125Q22.971874 40.95625 22.3625 41.346874Q21.76875 41.753124 20.925 41.753124Q20.409374 41.753124 19.784374 41.55ZM38.753124 37.55L34.8 27.175L36.659374 27.175L38.89375 33.39375Q39.253124 34.39375 39.55 35.471874Q39.784374 34.659374 40.20625 33.503124L42.503124 27.175L44.315624 27.175L40.39375 37.55L38.753124 37.55ZM45.159374 34.45625L46.909374 34.175Q47.05 35.221874 47.721874 35.784374Q48.39375 36.33125 49.596874 36.33125Q50.8 36.33125 51.378124 35.846874Q51.971874 35.346874 51.971874 34.690624Q51.971874 34.096874 51.45625 33.753124Q51.096874 33.51875 49.659374 33.159374Q47.721874 32.659374 46.971874 32.315624Q46.2375 31.95625 45.846874 31.33125Q45.45625 30.690624 45.45625 29.925Q45.45625 29.2375 45.76875 28.64375Q46.096874 28.05 46.64375 27.659374Q47.05 27.3625 47.753124 27.159374Q48.471874 26.940624 49.284374 26.940624Q50.503124 26.940624 51.425 27.3Q52.346874 27.64375 52.784374 28.253124Q53.221874 28.846874 53.39375 29.846874L51.675 30.08125Q51.55 29.284374 50.9875 28.846874Q50.425 28.39375 49.409374 28.39375Q48.190624 28.39375 47.675 28.8Q47.159374 29.190624 47.159374 29.721874Q47.159374 30.065624 47.378124 30.346874Q47.58125 30.628124 48.05 30.815624Q48.315624 30.909374 49.596874 31.253124Q51.471874 31.753124 52.20625 32.08125Q52.940624 32.39375 53.3625 33.003124Q53.784374 33.596874 53.784374 34.503124Q53.784374 35.378124 53.26875 36.159374Q52.753124 36.940624 51.784374 37.3625Q50.815624 37.784374 49.596874 37.784374Q47.58125 37.784374 46.51875 36.940624Q45.45625 36.096874 45.159374 34.45625ZM56.3625 37.55L56.3625 35.55L58.3625 35.55L58.3625 37.55L56.3625 37.55ZM66.69063 37.55L70.4875 32.159374L66.9875 27.175L69.175 27.175L70.76875 29.6125Q71.22188 30.3 71.4875 30.76875Q71.925 30.128124 72.28438 29.628124L74.03438 27.175L76.12813 27.175L72.55 32.065624L76.40938 37.55L74.25313 37.55L72.1125 34.33125L71.55 33.45625L68.83125 37.55L66.69063 37.55Z" fill-rule="nonzero"/></svg>